<mxfile host="app.diagrams.net" modified="2023-06-27T07:58:48.574Z" agent="Mozilla/5.0 (X11; Linux x86_64) AppleWebKit/537.36 (KHTML, like Gecko) Chrome/114.0.0.0 Safari/537.36" version="21.5.1" etag="7whW5XGZjosYRkrHGJjU" type="github">
  <diagram name="Page-1" id="z0JQIu96hMM092xXc1qQ">
    <mxGraphModel>
      <root>
        <mxCell id="0" />
        <mxCell id="1" parent="0" />
      </root>
    </mxGraphModel>
  </diagram>
</mxfile>
